<svg width="32" height="32" viewBox="0 0 32 32" fill="none" xmlns="http://www.w3.org/2000/svg">
<path d="M16.0001 14.2583C15.0342 14.2583 14.2584 15.0342 14.2584 16C14.2584 16.9658 15.0342 17.7417 16.0001 17.7417C16.9659 17.7417 17.7417 16.9658 17.7417 16C17.7417 15.0342 16.9659 14.2583 16.0001 14.2583ZM16.0001 0.166672C7.26008 0.166672 0.166748 7.26 0.166748 16C0.166748 24.74 7.26008 31.8333 16.0001 31.8333C24.7401 31.8333 31.8334 24.74 31.8334 16C31.8334 7.26 24.7401 0.166672 16.0001 0.166672ZM19.4676 19.4675L6.50008 25.5L12.5326 12.5325L25.5001 6.5L19.4676 19.4675Z" fill="#F2CA46"/>
</svg>
