<svg width="1197" height="257" viewBox="0 0 1197 257" fill="none" xmlns="http://www.w3.org/2000/svg">
<g clip-path="url(#clip0_721_308)">
<rect width="1197" height="257" fill="white"/>
<rect x="-32.645" y="256.927" width="256.95" height="1395.64" transform="rotate(-90 -32.645 256.927)" fill="#7EC2DF"/>
<g style="mix-blend-mode:soft-light" clip-path="url(#clip1_721_308)">
<path d="M1096.29 190.114C1096.29 190.114 1225.22 138.829 1221.85 -22.4923C1218.48 -183.814 1077.79 -233.933 1077.79 -233.933C1077.79 -233.933 1036.42 -255.186 969.989 -261.287C903.559 -267.388 607.39 -261.287 607.39 -261.287V535.958H779.858V224.534L938.608 224.152L1129.79 535.958H1307.41L1096.31 190.114H1096.29ZM902.766 131.654C809.713 131.654 734.263 62.3389 734.263 -23.1479C734.263 -108.635 809.713 -177.949 902.766 -177.949C995.82 -177.949 1071.27 -108.635 1071.27 -23.1479C1071.27 62.3389 995.82 131.654 902.766 131.654Z" fill="#444444"/>
<path d="M905.859 73.3761C964.981 73.3761 1012.91 29.3458 1012.91 -24.9683C1012.91 -79.2825 964.981 -123.313 905.859 -123.313C846.737 -123.313 798.81 -79.2825 798.81 -24.9683C798.81 29.3458 846.737 73.3761 905.859 73.3761Z" fill="#444444"/>
</g>
<g clip-path="url(#clip2_721_308)">
<g style="mix-blend-mode:soft-light">
<path d="M385.504 110.356C363.416 110.356 345.674 126.688 345.674 147.02C345.674 167.353 363.416 183.685 385.504 183.685C407.591 183.685 425.333 167.353 425.333 147.02C425.333 126.688 407.591 110.356 385.504 110.356ZM385.504 -186.296C185.632 -186.296 23.4175 -36.9702 23.4175 147.02C23.4175 331.011 185.632 480.337 385.504 480.337C585.375 480.337 747.59 331.011 747.59 147.02C747.59 -36.9702 585.375 -186.296 385.504 -186.296ZM464.801 220.017L168.252 347.01L306.207 74.0242L602.755 -52.9694L464.801 220.017Z" fill="white"/>
</g>
</g>
</g>
<defs>
<clipPath id="clip0_721_308">
<rect width="1197" height="257" fill="white"/>
</clipPath>
<clipPath id="clip1_721_308">
<rect width="700.003" height="799.959" fill="white" transform="translate(607.39 -264)"/>
</clipPath>
<clipPath id="clip2_721_308">
<rect width="869.007" height="799.959" fill="white" transform="translate(-49 -252.959)"/>
</clipPath>
</defs>
</svg>
