<svg width="30" height="30" viewBox="0 0 30 30" fill="none" xmlns="http://www.w3.org/2000/svg">
<path fill-rule="evenodd" clip-rule="evenodd" d="M14.2382 4.59001C14.0609 4.63096 13.8236 4.71316 13.7109 4.77263C13.0584 5.11681 2.17444 11.4605 2.06524 11.5603C1.77537 11.825 1.79142 12.3593 2.09659 12.6008C2.45659 12.8859 13.8512 19.445 14.0915 19.5056C14.4542 19.5969 15.1028 19.586 15.4434 19.4828C15.8397 19.3627 27.3535 12.6622 27.4995 12.4667C27.6508 12.264 27.6501 11.8763 27.498 11.6702C27.4014 11.5391 21.9647 8.33438 16.687 5.29741C15.3718 4.54066 14.9632 4.42261 14.2382 4.59001ZM26.5868 14.6234L25.7226 15.1268V18.2044V21.2819L25.5883 21.3875C24.7631 22.0367 25.0291 23.5142 26.048 23.9409C27.5478 24.569 28.8745 22.5587 27.6945 21.4457L27.4812 21.2446L27.4662 17.6823L27.4511 14.12L26.5868 14.6234ZM6.04714 18.5303C6.07767 21.543 5.84914 21.2292 9.57994 23.3817C12.8954 25.2946 13.2686 25.4438 14.7362 25.4438C16.1981 25.4438 16.5339 25.3106 19.8132 23.4305C23.6187 21.2486 23.3947 21.5525 23.4253 18.5303C23.4399 17.0842 23.4274 16.5235 23.3805 16.5235C23.3446 16.5235 21.741 17.4387 19.8171 18.5574C15.6999 20.9513 15.8451 20.8847 14.7362 20.8852C13.6354 20.8856 13.7892 20.9563 9.64572 18.5489C7.72842 17.4349 6.12979 16.5235 6.09327 16.5235C6.04467 16.5235 6.03229 17.0615 6.04714 18.5303Z" fill="#66BFE5"/>
</svg>
