<svg width="469" height="358" viewBox="0 0 469 358" fill="none" xmlns="http://www.w3.org/2000/svg">
<rect x="0.8125" y="54.0156" width="457.234" height="269.781" rx="21.75" fill="url(#paint0_angular_81_1238)" stroke="#323232" stroke-width="0.5"/>
<rect x="0.8125" y="54.0156" width="457.234" height="269.781" rx="21.75" fill="url(#paint1_angular_81_1238)" stroke="#323232" stroke-width="0.5"/>
<g clip-path="url(#clip0_81_1238)" filter="url(#filter0_d_81_1238)">
<path d="M298.453 218.695C293.258 218.695 289.008 222.946 289.008 228.141C289.008 233.336 293.258 237.586 298.453 237.586C303.648 237.586 307.898 233.336 307.898 228.141C307.898 222.946 303.648 218.695 298.453 218.695ZM298.453 256.477C293.258 256.477 289.008 260.727 289.008 265.922C289.008 271.117 293.258 275.367 298.453 275.367C303.648 275.367 307.898 271.117 307.898 265.922C307.898 260.727 303.648 256.477 298.453 256.477ZM298.453 180.914C293.258 180.914 289.008 185.164 289.008 190.359C289.008 195.554 293.258 199.805 298.453 199.805C303.648 199.805 307.898 195.554 307.898 190.359C307.898 185.164 303.648 180.914 298.453 180.914ZM270.117 185.637C267.473 185.637 265.395 187.715 265.395 190.359C265.395 193.004 267.473 195.082 270.117 195.082C272.762 195.082 274.84 193.004 274.84 190.359C274.84 187.715 272.762 185.637 270.117 185.637ZM298.453 143.133C293.258 143.133 289.008 147.383 289.008 152.578C289.008 157.773 293.258 162.023 298.453 162.023C303.648 162.023 307.898 157.773 307.898 152.578C307.898 147.383 303.648 143.133 298.453 143.133ZM440.133 195.082C442.777 195.082 444.855 193.004 444.855 190.359C444.855 187.715 442.777 185.637 440.133 185.637C437.488 185.637 435.41 187.715 435.41 190.359C435.41 193.004 437.488 195.082 440.133 195.082ZM374.016 162.023C379.211 162.023 383.461 157.773 383.461 152.578C383.461 147.383 379.211 143.133 374.016 143.133C368.821 143.133 364.57 147.383 364.57 152.578C364.57 157.773 368.821 162.023 374.016 162.023ZM374.016 128.965C376.66 128.965 378.738 126.887 378.738 124.242C378.738 121.598 376.66 119.52 374.016 119.52C371.371 119.52 369.293 121.598 369.293 124.242C369.293 126.887 371.371 128.965 374.016 128.965ZM270.117 223.418C267.473 223.418 265.395 225.496 265.395 228.141C265.395 230.785 267.473 232.863 270.117 232.863C272.762 232.863 274.84 230.785 274.84 228.141C274.84 225.496 272.762 223.418 270.117 223.418ZM336.234 289.535C333.59 289.535 331.512 291.613 331.512 294.258C331.512 296.902 333.59 298.98 336.234 298.98C338.879 298.98 340.957 296.902 340.957 294.258C340.957 291.613 338.879 289.535 336.234 289.535ZM336.234 128.965C338.879 128.965 340.957 126.887 340.957 124.242C340.957 121.598 338.879 119.52 336.234 119.52C333.59 119.52 331.512 121.598 331.512 124.242C331.512 126.887 333.59 128.965 336.234 128.965ZM336.234 162.023C341.429 162.023 345.68 157.773 345.68 152.578C345.68 147.383 341.429 143.133 336.234 143.133C331.039 143.133 326.789 147.383 326.789 152.578C326.789 157.773 331.039 162.023 336.234 162.023ZM336.234 213.973C328.395 213.973 322.066 220.301 322.066 228.141C322.066 235.98 328.395 242.309 336.234 242.309C344.074 242.309 350.402 235.98 350.402 228.141C350.402 220.301 344.074 213.973 336.234 213.973ZM411.797 218.695C406.602 218.695 402.352 222.946 402.352 228.141C402.352 233.336 406.602 237.586 411.797 237.586C416.992 237.586 421.242 233.336 421.242 228.141C421.242 222.946 416.992 218.695 411.797 218.695ZM411.797 256.477C406.602 256.477 402.352 260.727 402.352 265.922C402.352 271.117 406.602 275.367 411.797 275.367C416.992 275.367 421.242 271.117 421.242 265.922C421.242 260.727 416.992 256.477 411.797 256.477ZM411.797 180.914C406.602 180.914 402.352 185.164 402.352 190.359C402.352 195.554 406.602 199.805 411.797 199.805C416.992 199.805 421.242 195.554 421.242 190.359C421.242 185.164 416.992 180.914 411.797 180.914ZM411.797 143.133C406.602 143.133 402.352 147.383 402.352 152.578C402.352 157.773 406.602 162.023 411.797 162.023C416.992 162.023 421.242 157.773 421.242 152.578C421.242 147.383 416.992 143.133 411.797 143.133ZM440.133 223.418C437.488 223.418 435.41 225.496 435.41 228.141C435.41 230.785 437.488 232.863 440.133 232.863C442.777 232.863 444.855 230.785 444.855 228.141C444.855 225.496 442.777 223.418 440.133 223.418ZM374.016 256.477C368.821 256.477 364.57 260.727 364.57 265.922C364.57 271.117 368.821 275.367 374.016 275.367C379.211 275.367 383.461 271.117 383.461 265.922C383.461 260.727 379.211 256.477 374.016 256.477ZM374.016 289.535C371.371 289.535 369.293 291.613 369.293 294.258C369.293 296.902 371.371 298.98 374.016 298.98C376.66 298.98 378.738 296.902 378.738 294.258C378.738 291.613 376.66 289.535 374.016 289.535ZM336.234 176.191C328.395 176.191 322.066 182.52 322.066 190.359C322.066 198.199 328.395 204.527 336.234 204.527C344.074 204.527 350.402 198.199 350.402 190.359C350.402 182.52 344.074 176.191 336.234 176.191ZM336.234 256.477C331.039 256.477 326.789 260.727 326.789 265.922C326.789 271.117 331.039 275.367 336.234 275.367C341.429 275.367 345.68 271.117 345.68 265.922C345.68 260.727 341.429 256.477 336.234 256.477ZM374.016 213.973C366.176 213.973 359.848 220.301 359.848 228.141C359.848 235.98 366.176 242.309 374.016 242.309C381.855 242.309 388.184 235.98 388.184 228.141C388.184 220.301 381.855 213.973 374.016 213.973ZM374.016 176.191C366.176 176.191 359.848 182.52 359.848 190.359C359.848 198.199 366.176 204.527 374.016 204.527C381.855 204.527 388.184 198.199 388.184 190.359C388.184 182.52 381.855 176.191 374.016 176.191Z" fill="#1D2A35"/>
</g>
<path d="M137.029 199.38C104.899 199.38 77.6994 177.28 77.6994 134.44C77.6994 92.28 105.919 68.14 138.049 68.14C154.539 68.14 167.799 75.79 176.469 84.63L160.659 104.01C154.199 98.23 147.569 94.15 138.559 94.15C122.239 94.15 108.809 108.77 108.809 133.42C108.809 158.58 120.369 173.2 138.219 173.2C148.419 173.2 156.409 168.1 162.359 161.64L178.339 180.68C167.629 193.09 153.519 199.38 137.029 199.38ZM229.331 199.38C212.841 199.38 195.161 193.26 182.071 181.19L199.411 160.28C208.251 167.93 219.981 173.2 230.011 173.2C241.231 173.2 246.501 168.95 246.501 162.15C246.501 154.84 239.531 152.46 228.651 147.87L212.501 141.07C199.241 135.8 186.831 124.75 186.831 106.39C186.831 85.14 205.871 68.14 232.731 68.14C247.351 68.14 262.821 73.75 273.871 84.8L258.741 103.84C250.411 97.55 242.591 94.15 232.731 94.15C223.381 94.15 217.771 97.89 217.771 104.52C217.771 111.66 225.591 114.38 236.811 118.8L252.621 125.09C268.261 131.38 277.611 141.92 277.611 159.77C277.611 180.85 259.931 199.38 229.331 199.38Z" fill="#F1F1F1"/>
<g clip-path="url(#clip1_81_1238)">
<path d="M208.875 166.314L255.279 195.445L208.875 224.576V166.314Z" fill="#323232" stroke="#969696" stroke-width="2"/>
</g>
<defs>
<filter id="filter0_d_81_1238" x="237.781" y="95.9062" width="234.688" height="234.688" filterUnits="userSpaceOnUse" color-interpolation-filters="sRGB">
<feFlood flood-opacity="0" result="BackgroundImageFix"/>
<feColorMatrix in="SourceAlpha" type="matrix" values="0 0 0 0 0 0 0 0 0 0 0 0 0 0 0 0 0 0 127 0" result="hardAlpha"/>
<feOffset dy="4"/>
<feGaussianBlur stdDeviation="2"/>
<feComposite in2="hardAlpha" operator="out"/>
<feColorMatrix type="matrix" values="0 0 0 0 0 0 0 0 0 0 0 0 0 0 0 0 0 0 0.25 0"/>
<feBlend mode="normal" in2="BackgroundImageFix" result="effect1_dropShadow_81_1238"/>
<feBlend mode="normal" in="SourceGraphic" in2="effect1_dropShadow_81_1238" result="shape"/>
</filter>
<radialGradient id="paint0_angular_81_1238" cx="0" cy="0" r="1" gradientUnits="userSpaceOnUse" gradientTransform="translate(206.732 216.563) rotate(46.0248) scale(183.422 141.282)">
<stop stop-color="#1D2A35"/>
<stop offset="0.327839" stop-color="#4A7A7A"/>
<stop offset="1" stop-color="#F2CA46"/>
</radialGradient>
<radialGradient id="paint1_angular_81_1238" cx="0" cy="0" r="1" gradientUnits="userSpaceOnUse" gradientTransform="translate(206.732 216.563) rotate(46.0248) scale(183.422 141.282)">
<stop stop-color="#1D2A35"/>
<stop offset="0.4" stop-color="#4A7A7A"/>
<stop offset="1" stop-color="#46CDF2"/>
</radialGradient>
<clipPath id="clip0_81_1238">
<rect width="226.688" height="226.688" fill="white" transform="translate(241.781 95.9062)"/>
</clipPath>
<clipPath id="clip1_81_1238">
<rect width="107.531" height="106.078" fill="white" transform="translate(172.031 142.406)"/>
</clipPath>
</defs>
</svg>
