<svg width="1280" height="170" viewBox="0 0 1280 170" fill="none" xmlns="http://www.w3.org/2000/svg">
<rect y="170" width="170" height="1280" transform="rotate(-90 0 170)" fill="url(#paint0_radial_185_129)"/>
<g style="mix-blend-mode:overlay">
<path d="M125.12 112H111.36L96.4 87.92L91.28 91.6V112H79.2V54.88H91.28V81.04C92.08 79.92 92.88 78.8 93.68 77.68C94.48 76.56 95.28 75.44 96.08 74.32L111.52 54.88H124.96L105.04 80.16L125.12 112ZM154.565 67.52C159.258 67.52 163.018 68.8 165.845 71.36C168.672 73.8667 170.085 77.92 170.085 83.52V112H158.165V86.48C158.165 83.3333 157.605 80.9867 156.485 79.44C155.365 77.84 153.578 77.04 151.125 77.04C147.498 77.04 145.018 78.2933 143.685 80.8C142.352 83.2533 141.685 86.8 141.685 91.44V112H129.765V68.32H138.885L140.485 73.92H141.125C142.085 72.4267 143.258 71.2267 144.645 70.32C146.032 69.36 147.578 68.6667 149.285 68.24C150.992 67.76 152.752 67.52 154.565 67.52ZM220.423 90.08C220.423 93.7067 219.916 96.9333 218.903 99.76C217.943 102.587 216.53 104.987 214.663 106.96C212.85 108.88 210.636 110.347 208.023 111.36C205.41 112.32 202.45 112.8 199.143 112.8C196.103 112.8 193.276 112.32 190.663 111.36C188.103 110.347 185.89 108.88 184.023 106.96C182.156 104.987 180.69 102.587 179.623 99.76C178.61 96.9333 178.103 93.7067 178.103 90.08C178.103 85.2267 178.956 81.1467 180.663 77.84C182.37 74.48 184.823 71.92 188.023 70.16C191.223 68.4 195.01 67.52 199.383 67.52C203.49 67.52 207.116 68.4 210.263 70.16C213.41 71.92 215.89 74.48 217.703 77.84C219.516 81.1467 220.423 85.2267 220.423 90.08ZM190.263 90.08C190.263 92.96 190.556 95.3867 191.143 97.36C191.783 99.28 192.77 100.747 194.103 101.76C195.436 102.72 197.17 103.2 199.303 103.2C201.436 103.2 203.143 102.72 204.423 101.76C205.756 100.747 206.716 99.28 207.303 97.36C207.943 95.3867 208.263 92.96 208.263 90.08C208.263 87.2 207.943 84.8 207.303 82.88C206.716 80.96 205.756 79.52 204.423 78.56C203.09 77.6 201.356 77.12 199.223 77.12C196.076 77.12 193.783 78.2133 192.343 80.4C190.956 82.5333 190.263 85.76 190.263 90.08ZM259.672 96.72C259.459 95.8133 259.139 94.48 258.712 92.72C258.339 90.9067 257.912 88.9867 257.432 86.96C256.952 84.88 256.499 82.9867 256.072 81.28C255.645 79.52 255.352 78.24 255.192 77.44H254.872C254.712 78.24 254.419 79.52 253.992 81.28C253.619 82.9867 253.192 84.88 252.712 86.96C252.232 88.9867 251.779 90.9067 251.352 92.72C250.925 94.5333 250.605 95.92 250.392 96.88L246.872 112H234.072L221.672 68.32H233.512L238.552 87.68C238.925 89.0133 239.245 90.6133 239.512 92.48C239.832 94.3467 240.125 96.16 240.392 97.92C240.659 99.6267 240.845 100.987 240.952 102H241.272C241.325 101.253 241.432 100.267 241.592 99.04C241.752 97.76 241.939 96.4533 242.152 95.12C242.419 93.7867 242.632 92.5867 242.792 91.52C243.005 90.4 243.165 89.6533 243.272 89.28L248.632 68.32H261.752L266.872 89.28C267.085 90.0267 267.325 91.2267 267.592 92.88C267.912 94.5333 268.179 96.2133 268.392 97.92C268.659 99.6267 268.792 100.987 268.792 102H269.112C269.219 101.093 269.405 99.7867 269.672 98.08C269.939 96.32 270.232 94.48 270.552 92.56C270.925 90.64 271.299 89.0133 271.672 87.68L276.872 68.32H288.552L275.992 112H263.032L259.672 96.72ZM384.329 54.88L369.769 112H356.009L348.249 82C348.089 81.4133 347.875 80.5333 347.609 79.36C347.395 78.1867 347.129 76.9067 346.809 75.52C346.542 74.1333 346.302 72.8267 346.089 71.6C345.875 70.32 345.715 69.3333 345.609 68.64C345.555 69.3333 345.395 70.32 345.129 71.6C344.915 72.8267 344.675 74.1333 344.409 75.52C344.142 76.8533 343.875 78.1333 343.609 79.36C343.342 80.5333 343.129 81.44 342.969 82.08L335.289 112H321.529L306.969 54.88H318.889L326.169 86.08C326.382 86.9867 326.622 88.1067 326.889 89.44C327.155 90.72 327.422 92.08 327.689 93.52C327.955 94.9067 328.195 96.2667 328.409 97.6C328.675 98.9333 328.862 100.08 328.969 101.04C329.075 100.027 329.235 98.88 329.449 97.6C329.662 96.2667 329.902 94.9333 330.169 93.6C330.435 92.2133 330.675 90.9333 330.889 89.76C331.155 88.5333 331.395 87.5733 331.609 86.88L339.929 54.88H351.369L359.689 86.88C359.849 87.5733 360.062 88.5333 360.329 89.76C360.595 90.9333 360.862 92.2133 361.129 93.6C361.395 94.9867 361.635 96.3467 361.849 97.68C362.062 98.96 362.222 100.08 362.329 101.04C362.489 99.7067 362.729 98.1333 363.049 96.32C363.369 94.4533 363.715 92.5867 364.089 90.72C364.515 88.8533 364.862 87.3067 365.129 86.08L372.409 54.88H384.329ZM400.872 63.6C400.872 65.7333 400.792 67.7867 400.632 69.76C400.526 71.7333 400.419 73.12 400.312 73.92H400.952C401.912 72.4267 403.032 71.2267 404.312 70.32C405.592 69.36 407.006 68.6667 408.552 68.24C410.152 67.76 411.832 67.52 413.592 67.52C416.739 67.52 419.486 68.08 421.832 69.2C424.179 70.32 425.992 72.0533 427.272 74.4C428.606 76.7467 429.272 79.7867 429.272 83.52V112H417.352V86.48C417.352 83.3333 416.766 80.9867 415.592 79.44C414.472 77.84 412.712 77.04 410.312 77.04C407.912 77.04 406.019 77.6 404.632 78.72C403.299 79.84 402.339 81.4667 401.752 83.6C401.166 85.7333 400.872 88.3467 400.872 91.44V112H388.952V51.2H400.872V63.6ZM457.851 67.44C463.717 67.44 468.197 68.72 471.291 71.28C474.437 73.7867 476.011 77.6533 476.011 82.88V112H467.691L465.371 106.08H465.051C463.824 107.627 462.544 108.907 461.211 109.92C459.931 110.933 458.437 111.653 456.731 112.08C455.077 112.56 453.024 112.8 450.571 112.8C448.011 112.8 445.691 112.32 443.611 111.36C441.584 110.347 439.984 108.827 438.811 106.8C437.637 104.72 437.051 102.107 437.051 98.96C437.051 94.32 438.677 90.9067 441.931 88.72C445.184 86.48 450.064 85.2533 456.571 85.04L464.171 84.8V82.88C464.171 80.5867 463.557 78.9067 462.331 77.84C461.157 76.7733 459.504 76.24 457.371 76.24C455.237 76.24 453.157 76.56 451.131 77.2C449.104 77.7867 447.077 78.5333 445.051 79.44L441.131 71.36C443.477 70.1333 446.064 69.1733 448.891 68.48C451.771 67.7867 454.757 67.44 457.851 67.44ZM459.531 91.92C455.691 92.0267 453.024 92.72 451.531 94C450.037 95.28 449.291 96.96 449.291 99.04C449.291 100.853 449.824 102.16 450.891 102.96C451.957 103.707 453.344 104.08 455.051 104.08C457.611 104.08 459.771 103.333 461.531 101.84C463.291 100.293 464.171 98.1333 464.171 95.36V91.76L459.531 91.92ZM505.012 103.28C506.345 103.28 507.625 103.147 508.852 102.88C510.079 102.613 511.305 102.293 512.532 101.92V110.8C511.252 111.333 509.652 111.787 507.732 112.16C505.865 112.587 503.812 112.8 501.572 112.8C498.959 112.8 496.612 112.373 494.532 111.52C492.505 110.667 490.879 109.2 489.652 107.12C488.479 104.987 487.892 102.053 487.892 98.32V77.28H482.212V72.24L488.772 68.24L492.212 59.04H499.812V68.32H512.052V77.28H499.812V98.32C499.812 99.9733 500.292 101.227 501.252 102.08C502.212 102.88 503.465 103.28 505.012 103.28ZM557.601 78.4L569.521 54.88H582.561L563.601 89.76V112H551.601V90.16L532.641 54.88H545.761L557.601 78.4ZM622.898 90.08C622.898 93.7067 622.391 96.9333 621.378 99.76C620.418 102.587 619.005 104.987 617.138 106.96C615.325 108.88 613.111 110.347 610.498 111.36C607.885 112.32 604.925 112.8 601.618 112.8C598.578 112.8 595.751 112.32 593.138 111.36C590.578 110.347 588.365 108.88 586.498 106.96C584.631 104.987 583.165 102.587 582.098 99.76C581.085 96.9333 580.578 93.7067 580.578 90.08C580.578 85.2267 581.431 81.1467 583.138 77.84C584.845 74.48 587.298 71.92 590.498 70.16C593.698 68.4 597.485 67.52 601.858 67.52C605.965 67.52 609.591 68.4 612.738 70.16C615.885 71.92 618.365 74.48 620.178 77.84C621.991 81.1467 622.898 85.2267 622.898 90.08ZM592.738 90.08C592.738 92.96 593.031 95.3867 593.618 97.36C594.258 99.28 595.245 100.747 596.578 101.76C597.911 102.72 599.645 103.2 601.778 103.2C603.911 103.2 605.618 102.72 606.898 101.76C608.231 100.747 609.191 99.28 609.778 97.36C610.418 95.3867 610.738 92.96 610.738 90.08C610.738 87.2 610.418 84.8 609.778 82.88C609.191 80.96 608.231 79.52 606.898 78.56C605.565 77.6 603.831 77.12 601.698 77.12C598.551 77.12 596.258 78.2133 594.818 80.4C593.431 82.5333 592.738 85.76 592.738 90.08ZM671.229 68.32V112H662.109L660.509 106.4H659.869C658.963 107.893 657.789 109.12 656.349 110.08C654.963 110.987 653.416 111.653 651.709 112.08C650.003 112.56 648.243 112.8 646.429 112.8C643.336 112.8 640.616 112.24 638.269 111.12C635.923 110 634.109 108.267 632.829 105.92C631.549 103.573 630.909 100.533 630.909 96.8V68.32H642.829V93.84C642.829 96.9333 643.389 99.28 644.509 100.88C645.629 102.48 647.416 103.28 649.869 103.28C652.323 103.28 654.216 102.72 655.549 101.6C656.936 100.48 657.896 98.8533 658.429 96.72C659.016 94.5867 659.309 91.9733 659.309 88.88V68.32H671.229ZM692.288 55.76C691.808 57.6267 691.194 59.6533 690.448 61.84C689.701 63.9733 688.901 66.1333 688.048 68.32C687.194 70.4533 686.314 72.5067 685.408 74.48H676.848C677.221 72.88 677.594 71.2267 677.968 69.52C678.341 67.8133 678.688 66.1067 679.008 64.4C679.381 62.64 679.701 60.96 679.968 59.36C680.288 57.76 680.554 56.2667 680.768 54.88H691.728L692.288 55.76ZM719.849 67.52C720.436 67.52 721.129 67.5467 721.929 67.6C722.729 67.6533 723.369 67.7333 723.849 67.84L722.969 79.04C722.596 78.9333 722.036 78.8533 721.289 78.8C720.596 78.6933 719.983 78.64 719.449 78.64C717.903 78.64 716.409 78.8533 714.969 79.28C713.529 79.6533 712.223 80.2667 711.049 81.12C709.929 81.9733 709.023 83.12 708.329 84.56C707.689 85.9467 707.369 87.68 707.369 89.76V112H695.449V68.32H704.489L706.249 75.68H706.809C707.663 74.1867 708.729 72.8267 710.009 71.6C711.289 70.3733 712.756 69.3867 714.409 68.64C716.116 67.8933 717.929 67.52 719.849 67.52ZM746.615 67.52C750.668 67.52 754.135 68.2933 757.015 69.84C759.948 71.3867 762.215 73.6267 763.815 76.56C765.415 79.4933 766.215 83.0933 766.215 87.36V93.12H738.055C738.162 96.48 739.148 99.12 741.015 101.04C742.935 102.96 745.575 103.92 748.935 103.92C751.762 103.92 754.322 103.653 756.615 103.12C758.908 102.533 761.282 101.653 763.735 100.48V109.68C761.602 110.747 759.335 111.52 756.935 112C754.588 112.533 751.735 112.8 748.375 112.8C744.002 112.8 740.135 112 736.775 110.4C733.415 108.747 730.775 106.267 728.855 102.96C726.935 99.6533 725.975 95.4933 725.975 90.48C725.975 85.36 726.828 81.12 728.535 77.76C730.295 74.3467 732.722 71.7867 735.815 70.08C738.908 68.3733 742.508 67.52 746.615 67.52ZM746.695 76C744.402 76 742.482 76.7467 740.935 78.24C739.442 79.7333 738.562 82.0533 738.295 85.2H755.015C755.015 83.44 754.695 81.8667 754.055 80.48C753.468 79.0933 752.562 78 751.335 77.2C750.108 76.4 748.562 76 746.695 76ZM818.662 64.16C816.369 64.16 814.315 64.6133 812.502 65.52C810.742 66.4267 809.249 67.7333 808.022 69.44C806.795 71.0933 805.862 73.12 805.222 75.52C804.635 77.92 804.342 80.6133 804.342 83.6C804.342 87.6533 804.822 91.12 805.782 94C806.795 96.8267 808.369 98.9867 810.502 100.48C812.635 101.973 815.355 102.72 818.662 102.72C821.009 102.72 823.329 102.453 825.622 101.92C827.969 101.387 830.502 100.64 833.222 99.68V109.84C830.715 110.853 828.235 111.6 825.782 112.08C823.329 112.56 820.582 112.8 817.542 112.8C811.675 112.8 806.822 111.6 802.982 109.2C799.195 106.747 796.395 103.333 794.582 98.96C792.769 94.5333 791.862 89.3867 791.862 83.52C791.862 79.2 792.449 75.2533 793.622 71.68C794.795 68.0533 796.502 64.9333 798.742 62.32C801.035 59.7067 803.835 57.68 807.142 56.24C810.502 54.8 814.342 54.08 818.662 54.08C821.489 54.08 824.315 54.4533 827.142 55.2C830.022 55.8933 832.769 56.8533 835.382 58.08L831.462 67.92C829.329 66.9067 827.169 66.0267 824.982 65.28C822.849 64.5333 820.742 64.16 818.662 64.16ZM860.719 67.44C866.586 67.44 871.066 68.72 874.159 71.28C877.306 73.7867 878.879 77.6533 878.879 82.88V112H870.559L868.239 106.08H867.919C866.693 107.627 865.413 108.907 864.079 109.92C862.799 110.933 861.306 111.653 859.599 112.08C857.946 112.56 855.893 112.8 853.439 112.8C850.879 112.8 848.559 112.32 846.479 111.36C844.453 110.347 842.853 108.827 841.679 106.8C840.506 104.72 839.919 102.107 839.919 98.96C839.919 94.32 841.546 90.9067 844.799 88.72C848.053 86.48 852.933 85.2533 859.439 85.04L867.039 84.8V82.88C867.039 80.5867 866.426 78.9067 865.199 77.84C864.026 76.7733 862.373 76.24 860.239 76.24C858.106 76.24 856.026 76.56 853.999 77.2C851.973 77.7867 849.946 78.5333 847.919 79.44L843.999 71.36C846.346 70.1333 848.933 69.1733 851.759 68.48C854.639 67.7867 857.626 67.44 860.719 67.44ZM862.399 91.92C858.559 92.0267 855.893 92.72 854.399 94C852.906 95.28 852.159 96.96 852.159 99.04C852.159 100.853 852.693 102.16 853.759 102.96C854.826 103.707 856.213 104.08 857.919 104.08C860.479 104.08 862.639 103.333 864.399 101.84C866.159 100.293 867.039 98.1333 867.039 95.36V91.76L862.399 91.92ZM913.801 67.52C918.707 67.52 922.681 69.44 925.721 73.28C928.761 77.0667 930.281 82.6667 930.281 90.08C930.281 95.04 929.561 99.2267 928.121 102.64C926.681 106 924.707 108.533 922.201 110.24C919.694 111.947 916.787 112.8 913.481 112.8C911.401 112.8 909.587 112.533 908.041 112C906.547 111.467 905.267 110.773 904.201 109.92C903.134 109.067 902.201 108.16 901.401 107.2H900.761C900.974 108.213 901.134 109.28 901.241 110.4C901.347 111.467 901.401 112.533 901.401 113.6V131.2H889.481V68.32H899.161L900.841 74H901.401C902.201 72.8267 903.161 71.76 904.281 70.8C905.401 69.7867 906.734 68.9867 908.281 68.4C909.881 67.8133 911.721 67.52 913.801 67.52ZM909.961 77.04C907.881 77.04 906.227 77.4667 905.001 78.32C903.774 79.1733 902.867 80.48 902.281 82.24C901.747 83.9467 901.454 86.1067 901.401 88.72V90C901.401 92.8267 901.667 95.2267 902.201 97.2C902.734 99.12 903.641 100.587 904.921 101.6C906.201 102.613 907.934 103.12 910.121 103.12C911.934 103.12 913.427 102.613 914.601 101.6C915.774 100.587 916.654 99.0933 917.241 97.12C917.827 95.1467 918.121 92.7467 918.121 89.92C918.121 85.6533 917.454 82.4533 916.121 80.32C914.841 78.1333 912.787 77.04 909.961 77.04ZM956.426 67.44C962.292 67.44 966.772 68.72 969.866 71.28C973.012 73.7867 974.586 77.6533 974.586 82.88V112H966.266L963.946 106.08H963.626C962.399 107.627 961.119 108.907 959.786 109.92C958.506 110.933 957.012 111.653 955.306 112.08C953.652 112.56 951.599 112.8 949.146 112.8C946.586 112.8 944.266 112.32 942.186 111.36C940.159 110.347 938.559 108.827 937.386 106.8C936.212 104.72 935.626 102.107 935.626 98.96C935.626 94.32 937.252 90.9067 940.506 88.72C943.759 86.48 948.639 85.2533 955.146 85.04L962.746 84.8V82.88C962.746 80.5867 962.132 78.9067 960.906 77.84C959.732 76.7733 958.079 76.24 955.946 76.24C953.812 76.24 951.732 76.56 949.706 77.2C947.679 77.7867 945.652 78.5333 943.626 79.44L939.706 71.36C942.052 70.1333 944.639 69.1733 947.466 68.48C950.346 67.7867 953.332 67.44 956.426 67.44ZM958.106 91.92C954.266 92.0267 951.599 92.72 950.106 94C948.612 95.28 947.866 96.96 947.866 99.04C947.866 100.853 948.399 102.16 949.466 102.96C950.532 103.707 951.919 104.08 953.626 104.08C956.186 104.08 958.346 103.333 960.106 101.84C961.866 100.293 962.746 98.1333 962.746 95.36V91.76L958.106 91.92ZM997.107 65.36C997.107 67.0133 997.054 68.64 996.947 70.24C996.84 71.84 996.734 73.0933 996.627 74H997.107C998.28 72.1867 999.854 70.6667 1001.83 69.44C1003.8 68.16 1006.36 67.52 1009.51 67.52C1014.41 67.52 1018.39 69.44 1021.43 73.28C1024.47 77.0667 1025.99 82.6667 1025.99 90.08C1025.99 95.04 1025.27 99.2267 1023.83 102.64C1022.44 106 1020.49 108.533 1017.99 110.24C1015.48 111.947 1012.55 112.8 1009.19 112.8C1005.99 112.8 1003.45 112.24 1001.59 111.12C999.774 109.947 998.28 108.64 997.107 107.2H996.307L994.307 112H985.187V51.2H997.107V65.36ZM1005.67 77.04C1003.59 77.04 1001.93 77.4667 1000.71 78.32C999.48 79.1733 998.574 80.48 997.987 82.24C997.454 83.9467 997.16 86.1067 997.107 88.72V90C997.107 94.2133 997.72 97.4667 998.947 99.76C1000.23 102 1002.52 103.12 1005.83 103.12C1008.28 103.12 1010.23 102 1011.67 99.76C1013.11 97.4667 1013.83 94.1867 1013.83 89.92C1013.83 85.6533 1013.08 82.4533 1011.59 80.32C1010.15 78.1333 1008.17 77.04 1005.67 77.04ZM1046.13 112H1034.21V51.2H1046.13V112ZM1074.99 67.52C1079.04 67.52 1082.51 68.2933 1085.39 69.84C1088.32 71.3867 1090.59 73.6267 1092.19 76.56C1093.79 79.4933 1094.59 83.0933 1094.59 87.36V93.12H1066.43C1066.53 96.48 1067.52 99.12 1069.39 101.04C1071.31 102.96 1073.95 103.92 1077.31 103.92C1080.13 103.92 1082.69 103.653 1084.99 103.12C1087.28 102.533 1089.65 101.653 1092.11 100.48V109.68C1089.97 110.747 1087.71 111.52 1085.31 112C1082.96 112.533 1080.11 112.8 1076.75 112.8C1072.37 112.8 1068.51 112 1065.15 110.4C1061.79 108.747 1059.15 106.267 1057.23 102.96C1055.31 99.6533 1054.35 95.4933 1054.35 90.48C1054.35 85.36 1055.2 81.12 1056.91 77.76C1058.67 74.3467 1061.09 71.7867 1064.19 70.08C1067.28 68.3733 1070.88 67.52 1074.99 67.52ZM1075.07 76C1072.77 76 1070.85 76.7467 1069.31 78.24C1067.81 79.7333 1066.93 82.0533 1066.67 85.2H1083.39C1083.39 83.44 1083.07 81.8667 1082.43 80.48C1081.84 79.0933 1080.93 78 1079.71 77.2C1078.48 76.4 1076.93 76 1075.07 76ZM1174.63 83.36C1174.63 87.7867 1174.07 91.8133 1172.95 95.44C1171.89 99.0133 1170.23 102.107 1167.99 104.72C1165.81 107.333 1162.98 109.333 1159.51 110.72C1156.1 112.107 1152.07 112.8 1147.43 112.8C1142.79 112.8 1138.74 112.107 1135.27 110.72C1131.86 109.28 1129.03 107.28 1126.79 104.72C1124.61 102.107 1122.95 98.9867 1121.83 95.36C1120.77 91.7333 1120.23 87.7067 1120.23 83.28C1120.23 77.36 1121.19 72.2133 1123.11 67.84C1125.09 63.4667 1128.07 60.08 1132.07 57.68C1136.13 55.2267 1141.27 54 1147.51 54C1153.7 54 1158.79 55.2267 1162.79 57.68C1166.79 60.08 1169.75 63.4933 1171.67 67.92C1173.65 72.2933 1174.63 77.44 1174.63 83.36ZM1132.95 83.36C1132.95 87.36 1133.46 90.8 1134.47 93.68C1135.49 96.56 1137.06 98.7733 1139.19 100.32C1141.33 101.867 1144.07 102.64 1147.43 102.64C1150.9 102.64 1153.67 101.867 1155.75 100.32C1157.89 98.7733 1159.43 96.56 1160.39 93.68C1161.41 90.8 1161.91 87.36 1161.91 83.36C1161.91 77.3333 1160.79 72.6133 1158.55 69.2C1156.31 65.7867 1152.63 64.08 1147.51 64.08C1144.1 64.08 1141.33 64.8533 1139.19 66.4C1137.06 67.9467 1135.49 70.16 1134.47 73.04C1133.46 75.92 1132.95 79.36 1132.95 83.36ZM1208.07 77.28H1197.75V112H1185.83V77.28H1179.27V71.52L1185.83 68.32V65.12C1185.83 61.3867 1186.44 58.5067 1187.67 56.48C1188.95 54.4 1190.73 52.9333 1193.03 52.08C1195.37 51.2267 1198.12 50.8 1201.27 50.8C1203.61 50.8 1205.72 50.9867 1207.59 51.36C1209.51 51.7333 1211.05 52.16 1212.23 52.64L1209.19 61.36C1208.28 61.0933 1207.29 60.8533 1206.23 60.64C1205.16 60.3733 1203.93 60.24 1202.55 60.24C1200.89 60.24 1199.67 60.7467 1198.87 61.76C1198.12 62.7733 1197.75 64.0533 1197.75 65.6V68.32H1208.07V77.28Z" fill="white"/>
</g>
<defs>
<radialGradient id="paint0_radial_185_129" cx="0" cy="0" r="1" gradientUnits="userSpaceOnUse" gradientTransform="translate(-88.5 1126) rotate(-77.7961) scale(1104.46 233.219)">
<stop stop-color="#1E2933"/>
<stop offset="0.460456" stop-color="#213343"/>
<stop offset="1" stop-color="#66BFE5"/>
</radialGradient>
</defs>
</svg>
