<svg width="25" height="25" viewBox="0 0 25 25" fill="none" xmlns="http://www.w3.org/2000/svg">
<path d="M17.9584 15.8333H16.8392L16.4425 15.4508C18.1425 13.4675 19.0209 10.7617 18.5392 7.88584C17.8734 3.9475 14.5867 0.802501 10.62 0.320835C4.62753 -0.415832 -0.415802 4.6275 0.320865 10.62C0.802532 14.5867 3.94753 17.8733 7.88587 18.5392C10.7617 19.0208 13.4675 18.1425 15.4509 16.4425L15.8334 16.8392V17.9583L21.8542 23.9792C22.435 24.56 23.3842 24.56 23.965 23.9792C24.5459 23.3983 24.5459 22.4492 23.965 21.8683L17.9584 15.8333ZM9.45836 15.8333C5.93086 15.8333 3.08337 12.9858 3.08337 9.45834C3.08337 5.93083 5.93086 3.08333 9.45836 3.08333C12.9859 3.08333 15.8334 5.93083 15.8334 9.45834C15.8334 12.9858 12.9859 15.8333 9.45836 15.8333Z" fill="#323232"/>
</svg>
