<svg width="721" height="928" viewBox="0 0 721 928" fill="none" xmlns="http://www.w3.org/2000/svg">
<g clip-path="url(#clip0_449_218)">
<rect width="721" height="928" fill="white"/>
<rect x="0.387695" y="-32.0453" width="723.242" height="947.769" fill="#F1F1F1"/>
<path d="M0 -32H721V151C721 177.51 699.51 199 673 199H0V-32Z" fill="#7BD7FF"/>
<path d="M0 210H695C709.359 210 721 221.641 721 236V414C721 440.51 699.51 462 673 462H0V210Z" fill="#A6E4FF"/>
<path d="M0 487H695C709.359 487 721 498.641 721 513V693C721 719.51 699.51 741 673 741H0V487Z" fill="#BFECFF"/>
<path d="M0 784H673C699.51 784 721 805.49 721 832V928H0V784Z" fill="#C3E9FA"/>
<g style="mix-blend-mode:soft-light" clip-path="url(#clip1_449_218)">
<path d="M548.796 338.438C548.796 338.438 679.013 283.61 675.61 111.143C672.206 -61.324 530.117 -114.906 530.117 -114.906C530.117 -114.906 488.333 -137.628 421.242 -144.15C354.152 -150.673 55.0371 -144.15 55.0371 -144.15V708.178H229.22V375.237L389.549 374.828L582.632 708.178H762.02L548.816 338.438H548.796ZM353.351 275.939C259.372 275.939 183.172 201.835 183.172 110.442C183.172 19.049 259.372 -55.0546 353.351 -55.0546C447.33 -55.0546 523.53 19.049 523.53 110.442C523.53 201.835 447.33 275.939 353.351 275.939Z" fill="#363636"/>
<path d="M356.474 213.635C416.184 213.635 464.588 166.562 464.588 108.496C464.588 50.429 416.184 3.35657 356.474 3.35657C296.764 3.35657 248.36 50.429 248.36 108.496C248.36 166.562 296.764 213.635 356.474 213.635Z" fill="#363636"/>
</g>
<g style="mix-blend-mode:soft-light" clip-path="url(#clip2_449_218)">
<path d="M101.548 372.435C-141.18 372.435 -348.47 519.32 -432.454 726.659C-348.47 933.999 -141.18 1080.88 101.548 1080.88C344.276 1080.88 551.566 933.999 635.549 726.659C551.566 519.32 344.276 372.435 101.548 372.435ZM101.548 962.809C-32.4379 962.809 -141.18 857.014 -141.18 726.659C-141.18 596.305 -32.4379 490.51 101.548 490.51C235.534 490.51 344.276 596.305 344.276 726.659C344.276 857.014 235.534 962.809 101.548 962.809ZM101.548 584.97C20.9622 584.97 -44.0889 648.258 -44.0889 726.659C-44.0889 805.061 20.9622 868.349 101.548 868.349C182.134 868.349 247.185 805.061 247.185 726.659C247.185 648.258 182.134 584.97 101.548 584.97Z" fill="#E7E7E7"/>
</g>
</g>
<defs>
<clipPath id="clip0_449_218">
<rect width="721" height="928" fill="white"/>
</clipPath>
<clipPath id="clip1_449_218">
<rect width="706.963" height="855.229" fill="white" transform="translate(55.0371 -147.051)"/>
</clipPath>
<clipPath id="clip2_449_218">
<rect width="1165.09" height="1133.52" fill="white" transform="translate(-431 159.9)"/>
</clipPath>
</defs>
</svg>
