<svg width="1920" height="449" viewBox="0 0 1920 449" fill="none" xmlns="http://www.w3.org/2000/svg">
<g clip-path="url(#clip0_525_259)">
<rect width="1920" height="449" fill="#F1F1F1"/>
<path d="M0 0H960V150C960 176.51 938.51 198 912 198H0V0Z" fill="#E3CA75"/>
<path d="M1920 0H992C977.641 0 966 11.6406 966 26V168C966 194.51 987.49 216 1014 216H1920V0Z" fill="#E3CA75"/>
<path d="M0 495H934C948.359 495 960 483.359 960 469V253C960 226.49 938.51 205 912 205H0V495Z" fill="#E3CA75"/>
<path d="M1920 222H1014C987.49 222 966 243.49 966 270V495H1920V222Z" fill="#E3CA75"/>
<g style="mix-blend-mode:soft-light" clip-path="url(#clip1_525_259)">
<path d="M1264.16 -342.5C1012.49 -342.5 797.57 -185.963 710.493 35C797.57 255.963 1012.49 412.5 1264.16 412.5C1515.83 412.5 1730.75 255.963 1817.83 35C1730.75 -185.963 1515.83 -342.5 1264.16 -342.5ZM1264.16 286.667C1125.24 286.667 1012.49 173.92 1012.49 35C1012.49 -103.92 1125.24 -216.667 1264.16 -216.667C1403.08 -216.667 1515.83 -103.92 1515.83 35C1515.83 173.92 1403.08 286.667 1264.16 286.667ZM1264.16 -116C1180.61 -116 1113.16 -48.5533 1113.16 35C1113.16 118.553 1180.61 186 1264.16 186C1347.71 186 1415.16 118.553 1415.16 35C1415.16 -48.5533 1347.71 -116 1264.16 -116Z" fill="#E7E7E7"/>
</g>
<g style="mix-blend-mode:soft-light" clip-path="url(#clip2_525_259)">
<path d="M915.438 336.525C915.438 336.525 1086.18 262.607 1081.72 30.0911C1077.26 -202.425 890.944 -274.663 890.944 -274.663C890.944 -274.663 836.155 -305.296 748.183 -314.09C660.212 -322.883 268 -314.09 268 -314.09V834.999H496.396V386.136L706.626 385.585L959.804 834.999H1195.03L915.464 336.525H915.438ZM659.161 252.265C535.932 252.265 436.016 152.36 436.016 29.1461C436.016 -94.0681 535.932 -193.973 659.161 -193.973C782.39 -193.973 882.307 -94.0681 882.307 29.1461C882.307 152.36 782.39 252.265 659.161 252.265Z" fill="#363636"/>
<path d="M663.257 168.268C741.55 168.268 805.02 104.806 805.02 26.5219C805.02 -51.7623 741.55 -115.224 663.257 -115.224C584.963 -115.224 521.494 -51.7623 521.494 26.5219C521.494 104.806 584.963 168.268 663.257 168.268Z" fill="#363636"/>
</g>
</g>
<defs>
<clipPath id="clip0_525_259">
<rect width="1920" height="449" fill="white"/>
</clipPath>
<clipPath id="clip1_525_259">
<rect width="1208" height="1208" fill="white" transform="translate(712 -569)"/>
</clipPath>
<clipPath id="clip2_525_259">
<rect width="927" height="1153" fill="white" transform="translate(268 -318)"/>
</clipPath>
</defs>
</svg>
